degueule2out.sfdir
StartChar: A
Encoding: 65 65 8
Width: 601
VWidth: 0
Flags: W
HStem: -87 50<497.288 565.446> 75.5254 49.7267<454.376 537.232> 716.113 20G<367.603 416.998>
VStem: 365.854 51.1441<517.066 582.405 672.055 735.908> 567.512 49.9157<-36.4386 47.0926>
LayerCount: 2
Back
SplineSet
679 186 m 29
 819 310 l 1053
-76 186 m 25
 64 310 l 1049
EndSplineSet
Fore
SplineSet
403.934587188 70.6559568241 m 1
 367.663163162 64.2777320221 324.117533289 51.2007763188 273.042511079 29.0621170673 c 0
 260.54858686 23.6465789228 245.577655212 29.5635647014 240.162117067 42.0574889205 c 0
 234.746578923 54.5514131397 240.663564701 69.5223447883 253.157488921 74.9378829327 c 0
 306.123944956 97.8963912446 352.682690108 112.185877247 393.217471703 119.534651379 c 1
 371.436905069 237.023185172 365.695512373 397.222572674 365.853610363 582.404586365 c 1
 275.220142146 344.416514437 161.272224382 101.306733427 70.7496671754 -15.3280998973 c 0
 62.4006787747 -26.0854503366 46.429250542 -28.098655576 35.6719001027 -19.7496671754 c 0
 24.9145496634 -11.4006787747 22.901344424 4.570749458 31.2503328246 15.3280998973 c 0
 129.669969277 142.138016096 270.434454965 453.796493171 363.817589149 722.966939431 c 0
 365.34175658 727.360246972 366.853638102 731.74243466 368.352864752 736.112520851 c 0
 368.352864752 736.112520851 417.374082693 755.638659656 416.997738046 727.66370756 c 0
 413.67422952 480.616240528 416.568961796 264.761838653 443.018450553 125.252095802 c 1
 557.209754038 129.868192259 614.940892003 66.6480565841 617.427915618 3.62045562795 c 0
 619.127488729 -39.4511160306 592.502249342 -87 541 -87 c 0
 466.782252589 -87 426.808161932 -17.9911804162 403.934587188 70.6559568241 c 1
454.376096345 75.5253932751 m 1
 476.896304274 -6.49115313291 507.049425312 -37 541 -37 c 0
 554.73332232 -37 567.510522381 -25.0427078095 567.512241701 -0.651643736657 c 0
 567.514395945 29.9094475607 543.258802113 75.947450788 454.376096345 75.5253932751 c 1
-17.8868505291 234.534016542 m 0
 -27.4003123588 244.276718416 -27.2086853317 260.373388699 -17.4659834578 269.886850529 c 0
 256.545613801 537.451116088 372.915847554 92.4178050383 584.990770985 271.117864434 c 0
 595.403987853 279.892322266 611.443406602 278.522445884 620.217864434 268.109229015 c 0
 628.992322266 257.696012147 627.622445884 241.656593398 617.209229015 232.882135566 c 0
 345.084152446 3.58219496165 253.454386199 464.548883912 17.4659834578 234.113149471 c 0
 7.723281584 224.599687641 -8.37338869937 224.791314668 -17.8868505291 234.534016542 c 0
EndSplineSet
Validated: 37
EndChar
StartChar: E
Encoding: 69 69 9
Width: 769
VWidth: 0
HStem: -53 50<302.49 476.675> 287.587 48.8257<543.68 663.368> 341 50<160.013 470.89> 649.287 49.4265<490.163 724.609>
LayerCount: 2
Back
SplineSet
695 186 m 29
 835 310 l 1053
-91 186 m 29
 49 310 l 1053
EndSplineSet
Fore
SplineSet
724.713247067 670.224365031 m 0
 722.656714765 656.763426332 709.685303731 647.230220632 696.224365031 649.286752933 c 0
 559.079797388 670.239395212 405.226633011 678.202663842 257.951915856 666.434315592 c 1
 206.975993276 525.76938797 167.762919777 350.662716131 206.514516892 156.902903378 c 0
 223.767072866 70.6401235077 295.268540432 -3 378 -3 c 0
 545.347512023 -3 607.165127096 145.609634951 752.791551462 270.948205886 c 0
 763.112357838 279.831175633 779.165236138 278.629254914 788.048205886 268.308448538 c 0
 796.931175633 257.987642162 795.729254914 241.934763862 785.408448538 233.051794114 c 0
 656.834872904 122.390365049 577.591941101 -53 378 -53 c 0
 264.731459568 -53 178.232927134 43.3598764923 157.485483108 147.097096622 c 0
 114.775697706 360.648037439 161.755160273 552.547125273 216.591770561 698.77808604 c 0
 219.876479155 707.537308959 228.238633984 714.0449648 237.765390883 714.899930162 c 0
 396.117371068 729.111005307 557.948013502 720.992467013 703.775634969 698.713247067 c 0
 717.236573668 696.656714765 726.769779368 683.685303731 724.713247067 670.224365031 c 0
-33.0593406792 234.712426017 m 0
 -42.4756255175 244.549080714 -42.1242286807 260.643055841 -32.2875739835 270.059340679 c 0
 89.2885924506 386.439944445 177.054081055 391 263 391 c 0
 360.403288288 391 489.524312614 370.603046204 644.486352209 336.412849278 c 0
 657.783668694 333.478983214 666.446715342 319.910964276 663.512849278 306.613647791 c 0
 660.578983214 293.316331306 647.010964276 284.653284658 633.713647791 287.587150722 c 0
 480.475687386 321.396953796 353.596711712 341 263 341 c 0
 180.186153321 341 114.711407549 341.560055555 2.28757398347 233.940659321 c 0
 -7.54908071372 224.524374483 -23.6430558408 224.875771319 -33.0593406792 234.712426017 c 0
EndSplineSet
Validated: 37
EndChar
StartChar: N
Encoding: 78 78 21
Width: 1000
VWidth: 0
Flags: W
VStem: 170.976 48.0486<-23.8402 17.3997> 810.649 48.7011<657.553 706.198>
LayerCount: 2
Back
SplineSet
925 186 m 29
 1065 310 l 1053
-76 186 m 29
 64 310 l 1053
EndSplineSet
Fore
SplineSet
663.338667508 -56.3505505978 m 0
 650.075284189 -53.266906857 641.565805661 -39.6020508271 644.649449402 -26.3386675081 c 0
 810.649449402 687.661332492 l 0
 813.733093143 700.924715811 827.397949173 709.434194339 840.661332492 706.350550598 c 0
 853.924715811 703.266906857 862.434194339 689.602050827 859.350550598 676.338667508 c 0
 693.350550598 -37.6613324919 l 0
 690.266906857 -50.924715811 676.602050827 -59.4341943386 663.338667508 -56.3505505978 c 0
188.083909437 -24.024314586 m 0
 174.998222029 -20.2572227565 167.208593584 -6.16959684521 170.975685414 6.91609056265 c 0
 360.975685414 666.916090563 l 0
 364.742777243 680.001777971 378.830403155 687.791406416 391.916090563 684.024314586 c 0
 405.001777971 680.257222757 412.791406416 666.169596845 409.024314586 653.083909437 c 0
 219.024314586 -6.91609056265 l 0
 215.257222757 -20.0017779705 201.169596845 -27.7914064156 188.083909437 -24.024314586 c 0
-19.5638295041 236.435406361 m 0
 -28.0416325338 247.091533781 -26.2207210579 263.086026474 -15.5645936386 271.563829504 c 0
 149.915836269 403.216768215 221.075607242 685 385 685 c 0
 683.352301174 685 399.350507908 -7 669 -7 c 0
 791.951545026 -7 811.714146589 119.274601474 983.569086997 270.754437216 c 0
 993.784350457 279.758580054 1009.85029438 278.746176462 1018.85443722 268.530913003 c 0
 1027.85858005 258.315649543 1026.84617646 242.249705622 1016.630913 233.245562784 c 0
 866.285853411 100.725398526 830.048454974 -57 669 -57 c 0
 326.371777326 -57 602.647698826 635 385 635 c 0
 268.924392758 635 212.084163731 388.783231785 15.5645936386 232.436170496 c 0
 4.90846621927 223.958367466 -11.0860264743 225.779278942 -19.5638295041 236.435406361 c 0
EndSplineSet
Validated: 37
EndChar
StartChar: a
Encoding: 97 97 1
Width: 970
VWidth: 0
Flags: W
HStem: -38 50<375.978 492.45> 48 50<653.606 769.469> 502 50<448.438 655.449>
VStem: 306.986 49.9999<31.3814 144.439> 674 50<328.28 483.208>
LayerCount: 2
Back
SplineSet
-76 186 m 25
 64 310 l 1049
EndSplineSet
Fore
SplineSet
699.984637943 322.588413094 m 0
 707.386044775 311.158392416 704.018433772 295.41676889 692.588413094 288.015362057 c 0
 554.171706891 198.384871975 428.603494181 243.360140651 369.164621154 129.435849833 c 0
 360.996164881 113.779641975 357.020451719 97.427288055 356.986170346 82.4333233647 c 0
 356.900141278 44.8059854352 378.98563502 12 439 12 c 0
 491.470333911 12 598.773975242 113.489894952 628.747067927 191.924156185 c 0
 633.607923283 204.644151507 648.304160862 211.213787428 661.024156185 206.352932073 c 0
 673.744151507 201.492076717 680.313787428 186.795839138 675.452932073 174.075843815 c 0
 641.226024758 84.5101050485 529.666384839 -38 439 -38 c 0
 354.066629789 -38 306.839833712 18.4858597978 306.98630103 82.5476403051 c 0
 307.040323573 106.175985021 313.185019788 130.234295307 324.835378846 152.564150167 c 0
 399.875021443 296.389859349 559.828293109 261.615128025 665.411586906 329.984637943 c 0
 676.841607584 337.386044775 692.58323111 334.018433772 699.984637943 322.588413094 c 0
-18.0757604886 234.729595177 m 0
 -27.4826935403 244.5751935 -27.1160031468 260.668827437 -17.2704048233 270.075760489 c 0
 189.362210467 467.501972127 441.719767112 552 586 552 c 0
 675.866110069 552 724 498.875865413 724 419 c 0
 724 319.842246046 701.379136727 291.348155741 676.418608579 177.639817629 c 0
 671.164585503 153.704823615 668.414067502 135.203141832 668.358940627 122.807959298 c 0
 668.260550822 100.685181652 667.037517606 98 703 98 c 0
 768.993359161 98 836.224798565 168.940507065 953.716028222 270.882941211 c 0
 964.001285899 279.807047346 980.058835076 278.669229455 988.982941211 268.383971778 c 0
 997.907047346 258.098714101 996.769229455 242.041164924 986.483971778 233.117058789 c 0
 875.775201435 137.059492935 801.006640839 48 703 48 c 0
 652.289013007 48 618.135482081 72.6748766575 618.359435114 123.030329276 c 0
 618.443127417 141.848399193 621.998679803 162.927829446 627.581391421 188.360182371 c 0
 654.240003897 309.804188009 674 330.157753954 674 419 c 0
 674 475.124134587 652.133889931 502 586 502 c 0
 458.280232888 502 214.637789533 422.498027873 17.2704048233 233.924239511 c 0
 7.4248064997 224.51730646 -8.66882743687 224.883996853 -18.0757604886 234.729595177 c 0
EndSplineSet
Validated: 37
EndChar
StartChar: b
Encoding: 98 98 38
Width: 970
VWidth: 0
Flags: W
HStem: -67.0123 49.9542<398.004 455.802> -48.9953 49.9905<537.973 638.086>
VStem: 271.203 45.984<562.419 648.573>
LayerCount: 2
Back
SplineSet
896 186 m 25
 1036 310 l 1049
EndSplineSet
Fore
SplineSet
297.187036173 717.972314897 m 1x20
 361.993489225 750.922442092 435.617067218 785.443484889 480.011845792 765.682832684 c 0
 511.579663814 751.631615562 508.646878917 715.93293986 496.777698071 689.695803254 c 0
 459.475158036 607.23755686 293.011357566 64.7377081694 256.370086116 25.0429974317 c 0
 227.701928034 -6.01417382324 148.605892295 -47.9887690592 82.4053245471 18.3393527691 c 0
 72.7858322508 27.9773797326 72.8013258055 44.0751831566 82.4393527691 53.6946754529 c 0
 92.0773797326 63.3141677492 108.175183157 63.2986741945 117.794675453 53.6606472309 c 0
 154.80727461 16.5767328536 198.554638117 37.0930875441 218.854309075 58.1336553286 c 1
 244.917441732 102.49721816 413.145337028 626.134063807 451.222301929 710.304196746 c 0
 453.171354999 714.612629847 454.278210689 717.747518416 455.049712706 720.688028432 c 1
 433.617241531 721.640655586 373.597724026 700.967353225 317.187272216 672.042551948 c 1
 365.049920591 498.725904206 68.0608311464 277.80383768 17.3234905517 234.06475096 c 0
 7.00974157712 225.173588051 -9.04408613087 226.362760474 -17.93524904 236.676509448 c 0
 -26.8264119492 246.990258423 -25.6372395263 263.044086131 -15.3234905517 271.93524904 c 0
 45.0546235653 323.985347417 290.119839776 524.705422366 271.203242458 648.572600138 c 1
 246.348990052 637.331478268 114.54417981 572.43323386 91.84412651 657.558433736 c 0
 77.5185231784 711.279246808 125.727625917 760.675888969 175.270950939 773.539416946 c 0
 216.993311828 784.372294156 265.945260736 769.824430447 297.187036173 717.972314897 c 1x20
252.585402459 695.035284943 m 1
 232.192242726 726.454049914 208.97704052 730.633069378 187.836414316 725.144074917 c 0
 154.591578269 716.512319208 136.335635431 684.767405806 140.15587349 670.441566264 c 0
 142.551981964 661.456159488 198.965018057 670.496465547 252.585402459 695.035284943 c 1
988.582353656 268.724118291 m 0
 997.691732546 258.602586191 996.84565039 242.527025233 986.724118291 233.417646344 c 0
 938.590116468 190.097044704 688.901282022 -51.691072898 550.612738065 -48.9952510651 c 0
 536.998195975 -48.7298467246 525.839344594 -37.127280155 526.104748935 -23.5127380648 c 0
 526.370153275 -9.89819597468 537.972719845 1.26065540561 551.587261935 0.995251065083 c 0x60
 650.44953147 -0.931987858968 901.409883532 223.902955296 953.275881709 270.582353656 c 0
 963.397413809 279.691732546 979.472974767 278.84565039 988.582353656 268.724118291 c 0
478.986716714 -42.8148545093 m 0
 478.524190749 -56.9977609349 466.138925729 -66.6443343312 453.97015588 -67.012331468 c 1
 450.70918069 -66.9059861498 371.369260522 -66.1462913478 335.889352329 2.52449870309 c 0
 329.638817177 14.6223086745 334.526688732 29.9601125196 346.624498703 36.2106476714 c 0
 358.722308674 42.4611828233 374.06011252 37.5733112683 380.310647671 25.4755012969 c 0
 399.643331033 -11.9425955312 449.687908884 -16.777938754 455.801546176 -17.0581746688 c 1xa0
 467.551502544 -18.1829107271 479.449122917 -28.6356204519 478.986716714 -42.8148545093 c 0
295.08489111 235.00511208 m 0
 289.640824078 247.486631616 295.523592543 262.471041859 308.00511208 267.91510889 c 0
 402.768995168 309.248291939 510.893245529 345.203629152 610.4332533 309.534660371 c 0
 671.426838317 287.67862574 694.121030362 220.467011671 690.784679843 156.731381898 c 0
 685.274268674 51.46380759 606.601126637 -75.3592222539 452.737770313 -66.9628590165 c 0
 439.140871691 -66.2208727343 428.395154701 -54.2346689352 429.137140983 -40.6377703129 c 0
 429.879127266 -27.0408716906 441.865331065 -16.2951547012 455.462229687 -17.0371409835 c 0
 574.462592876 -23.5310216486 636.314425277 72.6421049993 640.853043829 159.345138761 c 0
 643.664625498 213.055900658 623.670722659 251.678081577 593.5667467 262.465339629 c 0
 515.796207595 290.333480224 421.231004832 262.751708061 327.99488792 222.08489111 c 0
 315.513368384 216.640824078 300.528958141 222.523592543 295.08489111 235.00511208 c 0
EndSplineSet
Validated: 37
EndChar
StartChar: c
Encoding: 99 99 39
Width: 1000
VWidth: 0
Flags: W
LayerCount: 2
Fore
SplineSet
-18.7860056263 235.50497067 m 0
 -27.7706031609 245.737428973 -26.7274876337 261.801408092 -16.4950293304 270.786005626 c 0
 63.6531026832 341.159975199 192.837080601 487.883253875 478.353142576 460.889008016 c 0
 501.03399143 458.744636852 522.487401598 440.673919825 525.644073898 414.692326601 c 0
 530.548051902 374.329200629 489.628140389 351.817081265 430.812191648 345.158671973 c 0
 383.951364705 339.853737148 239.41603827 339.96645752 218.730086559 200.336283473 c 0
 214.086718918 168.993551897 226.264723437 130.309404742 257.396832236 95.8931612108 c 0
 349.00253824 -5.37605595148 609.489087439 -67.6289615061 983.328996737 270.54004988 c 0
 993.427486597 279.674966318 1009.50513344 278.869493124 1018.64004988 268.771003263 c 0
 1027.77496632 258.672513403 1026.96949312 242.594866558 1016.87100326 233.45995012 c 0
 634.363535897 -112.549581955 338.96982271 -68.8186827206 220.316614447 62.3512851645 c 0
 181.435577471 105.33389344 161.922678106 158.069878017 169.269913441 207.663716527 c 0
 196.58396173 392.03354248 391.667775919 391.046653476 425.187808352 394.841328027 c 0
 456.934293858 398.435269782 471.380042309 406.138306335 475.171269171 409.542993415 c 1
 474.592006457 410.161589672 473.503082764 410.947610194 473.040055054 411.168567135 c 1
 209.48669744 435.57512096 100.515580561 306.988136918 16.4950293304 233.213994374 c 0
 6.26257102706 224.229396839 -9.80140809164 225.272512366 -18.7860056263 235.50497067 c 0
906.285295496 169.424118868 m 0
 897.256659185 179.617740509 898.230497227 195.686068194 908.424118868 204.714704504 c 0
 1048.42411887 328.714704504 l 0
 1058.61774051 337.743340815 1074.68606819 336.769502773 1083.7147045 326.575881132 c 0
 1092.74334081 316.382259491 1091.76950277 300.313931806 1081.57588113 291.285295496 c 0
 941.575881132 167.285295496 l 0
 931.382259491 158.256659185 915.313931806 159.230497227 906.285295496 169.424118868 c 0
EndSplineSet
Validated: 37
EndChar
StartChar: d
Encoding: 100 100 40
Width: 1000
VWidth: 0
Flags: W
LayerCount: 2
Back
SplineSet
905 166 m 29
 1045 290 l 1053
-76 184 m 25
 64 308 l 1049
EndSplineSet
Fore
SplineSet
442.598536605 227.426570018 m 0
 429.213754195 224.921815415 415.931324621 234.016680985 413.426570018 247.401463395 c 0
 412.489807276 252.407289298 411.341997703 257.065094547 410.017753436 261.392727718 c 0
 394.219534736 313.021341098 351.452085377 326.333001792 306.66771929 312.543214389 c 0
 251.798828827 295.648248565 203.778575465 238.082233635 228.871419408 157.426663816 c 0
 238.30641733 127.099884783 254.86519087 97.6571609146 278.261213904 72.5223606709 c 0
 376.394199264 -32.9038043174 612.549685142 -75.978151462 983.029883541 270.265024612 c 0
 992.978571221 279.562863566 1009.06718566 279.01880414 1018.36502461 269.070116459 c 0
 1027.66286357 259.121428779 1027.11880414 243.032814343 1017.17011646 233.734975388 c 0
 640.472743189 -118.318644491 368.249183626 -97.5387762103 241.66263559 38.4556017195 c 0
 213.02080198 69.2260777694 192.752604593 105.210401895 181.128580592 142.573336184 c 0
 146.956850544 252.411039908 214.950512604 336.618718396 291.953696857 360.329169898 c 0
 355.945166412 380.033116561 432.743316924 358.004428739 457.829425041 276.022972362 c 0
 459.725521585 269.826524696 461.309893771 263.350558235 462.573429982 256.598536605 c 0
 465.078184585 243.213754195 455.983319015 229.931324621 442.598536605 227.426570018 c 0
-18.7939778218 235.514054542 m 0
 -27.7736275058 245.750855182 -26.7227460975 261.814328138 -16.4859454577 270.793977822 c 0
 95.3277848232 368.876197366 232.190089611 526.256054356 307.760824546 673.420117125 c 0
 348.066633724 751.910377102 408.109313119 784.446828234 461.013962453 769.751596042 c 0
 514.830527649 754.803062571 544.151861301 695.133647569 526.055151146 631.191938355 c 0
 493.997998924 517.923333837 414.867452983 151.623168851 509.42841488 85.4864962118 c 0
 520.587105154 77.6820213955 523.390971028 61.8302753943 515.586496212 50.6715851203 c 0
 507.782021395 39.5128948464 491.930275394 36.7090289719 480.77158512 44.5135037882 c 0
 338.603250141 143.947143649 450.002001076 546.076666163 477.944848854 644.808061645 c 0
 490.229494632 688.213810058 469.936529232 715.380146277 447.632195116 721.575582271 c 0
 426.326930058 727.493508594 386.967264581 718.208266966 352.239175454 650.579882875 c 0
 272.367390857 495.040091818 132.672215177 335.123802634 16.4859454577 233.206022178 c 0
 6.24914481787 224.226372494 -9.81432813771 225.277253902 -18.7939778218 235.514054542 c 0
EndSplineSet
Validated: 37
EndChar
StartChar: e
Encoding: 101 101 0
Width: 1000
VWidth: 0
Flags: W
HStem: 27 50<348.605 651.588>
VStem: 110 50<219.166 297.569 364.44 429.342> 362 50<393.431 480.22>
LayerCount: 2
Back
SplineSet
925 186 m 29
 1065 310 l 1053
-76 186 m 29
 64 310 l 1053
EndSplineSet
Fore
SplineSet
160.1704319 312.684022415 m 1
 160.060904739 307.519110232 160 302.019042789 160 297 c 0
 160 156.701136815 337.775027186 77 475 77 c 0
 612.945405389 77 842.212845304 121.947986811 982.969211676 270.212626608 c 0
 992.344673791 280.088197776 1008.43705544 280.50625044 1018.31262661 271.130788324 c 0
 1028.18819778 261.755326209 1028.60625044 245.662944561 1019.23078832 235.787373392 c 0
 863.787154696 72.0520131891 621.054594611 27 475 27 c 0
 330.764035314 27 110 109.727527928 110 297.568546554 c 1
 77.9311172214 284.689908269 46.6840170152 265.365703938 18.2727207797 234.938122164 c 0
 8.97936928119 224.985242494 -7.10899816709 224.433927722 -17.0618778365 233.72727922 c 0
 -27.0147575059 243.020630719 -27.5660722782 259.108998167 -18.2727207797 269.061877836 c 0
 21.7486296172 311.9234531 67.4751750326 336.873593749 112.191937031 351.484636922 c 1
 120.42651243 443.079014885 156.816616934 526.029147648 260.36480352 545.566541344 c 0
 332.851094641 559.243200045 399.106175474 517.217411753 410.397734457 455.603688539 c 0
 411.451546884 449.853436755 412 443.962279872 412 438 c 0
 412 303.084609506 260.156686327 334.435647038 160.1704319 312.684022415 c 1
163.904039294 364.440385719 m 1
 297.271732797 389.196807056 362 364.365173894 362 438 c 0
 362 440.902451426 361.734927293 443.763381707 361.21679928 446.590608313 c 0
 355.771815933 476.301802078 319.316578433 505.807304307 269.63519648 496.433458656 c 0
 200.523153908 483.393450624 173.741644466 437.903745601 163.904039294 364.440385719 c 1
EndSplineSet
Validated: 33
EndChar
StartChar: f
Encoding: 102 102 41
Width: 1000
VWidth: 0
Flags: W
HStem: 361.237 49.5259<448.197 562.767>
VStem: 378 49.9514<3.10777 58.7461> 402.283 52.0021<401.515 539.867>
LayerCount: 2
Back
SplineSet
915 177 m 25
 1055 301 l 1049
-76 184 m 29
 64 308 l 1053
EndSplineSet
Fore
SplineSet
402.038882446 81.9815182294 m 0xc0
 416.218836014 82.5270656283 426.720364183 70.8578086625 427.951325296 58.7460811986 c 1
 428.180902648 52.7788706572 428.497813132 -27.7631866152 342.382516985 -69.4096917195 c 1
 457.687513204 -115.825062252 640.660358109 -50.8988248248 982.996016882 270.233314606 c 0
 992.927432594 279.549600226 1009.01702899 279.035398829 1018.33331461 269.103983118 c 0
 1027.64960023 259.172567406 1027.13539883 243.082971014 1017.20398312 233.766685394 c 0
 643.748540636 -116.557746643 434.286439981 -191.65005291 282.435319085 -94.389315676 c 0
 276.855125132 -90.8151979836 271.3946892 -87.0259767292 266.047889678 -83.0358278319 c 0
 226.37874841 -53.431991065 276.322197303 -38.4415358394 276.322197303 -38.4415358394 c 0
 380.788215296 -18.543246698 378.057494266 52.4760666008 377.999958556 57.3030362792 c 1
 378.275329849 68.5968429765 387.867615464 81.4363050308 402.038882446 81.9815182294 c 0xc0
402.283477891 539.866846493 m 1xa0
 287.191029136 470.865464138 164.095465699 364.722417479 16.7371963686 233.33978304 c 0
 6.57325328397 224.277749231 -9.49818315067 225.198860547 -18.5602169599 235.362803631 c 0
 -27.6222507692 245.526746716 -26.7011394533 261.598183151 -16.5371963686 270.66021696 c 0
 142.343075584 412.315712673 274.930851908 526.884338262 404.491521891 598.892564591 c 0
 405.015171702 599.183602713 406.056482532 599.760337567 406.838652341 600.193037044 c 0
 407.266225475 603.522971866 407.777544512 607.174571903 408.227184542 610.020257124 c 0
 421.304163212 692.781938707 466.708731277 734.787107853 517.868023934 744.602832663 c 0
 577.927970587 756.126289649 652.465339165 726.999178388 661.646360754 678.57639144 c 0
 667.801223151 646.114253361 637.86020416 628.262195107 610.367215058 623.384406718 c 0
 559.603027233 614.377996719 509.278869372 596.503995493 457.583393202 570.457790511 c 0
 456.603597336 569.964130991 455.385539502 569.346432416 454.285616402 568.786224264 c 0
 433.117568764 257.408089742 450.261463889 138.537122771 427.180031518 50.6497184492 c 0
 423.721127456 37.4792143407 409.820222558 29.361064419 396.649718449 32.8199684817 c 0
 383.479214341 36.2788725444 375.361064419 50.1797774422 378.819968482 63.3502815508 c 0
 396.699159153 131.429057348 384.130488409 250.130019719 402.283477891 539.866846493 c 1xa0
463.542304127 628.726076095 m 1
 509.177767494 649.338015604 555.117282039 664.36297055 601.632784942 672.615593282 c 0
 604.31250787 673.091027995 605.93077435 673.457022599 608.346232365 674.140319342 c 1
 586.373535307 695.193660948 523.841568657 711.66714892 488.188335 674.259789035 c 0
 478.776911417 664.385326809 469.951700144 649.748683373 463.542304127 628.726076095 c 1
310.65106752 280.169055244 m 0
 302.028186991 290.708131445 303.629979042 306.726051952 314.169055244 315.34893248 c 0
 358.563686366 351.671812489 454.51637425 422.832048616 541.534529317 410.762956374 c 0
 555.022543938 408.892219256 564.733693492 396.053485305 562.862956374 382.565470683 c 0
 560.992219256 369.077456062 548.153485305 359.366306508 534.665470683 361.237043626 c 0
 477.48362575 369.167951384 389.436313634 312.328187511 345.830944756 276.65106752 c 0
 335.291868555 268.028186991 319.273948048 269.629979042 310.65106752 280.169055244 c 0
EndSplineSet
Validated: 37
EndChar
StartChar: g
Encoding: 103 103 42
Width: 1000
VWidth: 0
Flags: W
HStem: 227 50<383.747 534.951> 251.52 46.179<623.663 665.371> 476 50<387.771 543.02>
VStem: 580.191 49.9999<322.665 440.219>
LayerCount: 2
Back
SplineSet
913 177 m 29
 1053 301 l 1053
-76 186 m 29
 64 310 l 1053
EndSplineSet
Fore
SplineSet
585.295308496 360.412820742 m 0x70
 576.260518264 370.60098845 577.224653033 386.669901272 587.412820742 395.704691504 c 0
 636.542576067 439.272587736 692.137220842 448.252039521 726.87485383 418.997878487 c 0
 759.938838845 391.153173512 756.311375741 342.188117849 723.856822319 304.284149969 c 1
 788.19742355 286.892356329 828.673506826 227.615106677 839.680840925 161.403253697 c 1
 909.68593727 204.018645537 971.923625164 277 1000.1 277 c 0xb0
 1013.71712876 277 1025.1 265.617128764 1025.1 252 c 0
 1025.1 245.090718824 1022.36030582 238.608789861 1017.05430828 233.626126515 c 1
 1010.70032292 227.951107692 924.02234705 149.119165633 841.911920169 105.074972497 c 1
 834.593137513 18.4876583574 777.539667732 -71.9482563797 656.293384453 -114.584312038 c 0
 532.613189287 -158.0762488 354.719723302 -111.430235015 269.632408943 -28.0221928277 c 0
 215.13135725 25.4032331959 198.980326944 101.990576154 266.148179021 170.501785273 c 0
 368.418487424 274.817499844 610.054371271 72.7057051801 781.765696092 132.605004536 c 0
 784.959712687 133.719196371 788.663005082 135.147036476 792.28451525 136.643006402 c 0
 787.088782464 210.278745145 740.199253678 262.934162991 680.874402136 258.705893831 c 0
 670.881975744 257.993702106 660.126836904 255.739865116 648.584107085 251.519942386 c 0
 596.101971428 232.332925049 619.613258972 293.125006186 629.523545563 297.698984613 c 0
 702.042049194 331.169063211 702.580862776 367.200673605 698.634274937 375.613071227 c 0
 695.621716861 382.034526273 682.20494049 393.818207162 650.782923734 378.904902388 c 0
 641.684262321 374.586557332 631.460239524 367.937456279 620.587179258 358.295308496 c 0
 610.39901155 349.260518264 594.330098728 350.224653033 585.295308496 360.412820742 c 0x70
787.749217276 81.9641723626 m 1
 561.225465794 13.0067682948 366.430549459 201.368517777 301.851820979 135.498214727 c 0
 255.011890955 87.7214861029 264.073684125 47.4432124564 304.6336485 7.68373426372 c 0
 374.628810867 -60.9300126801 537.716252995 -103.280430837 639.706615547 -67.4156879618 c 0
 729.934813561 -35.6870908579 773.693481967 23.3480394179 787.749217276 81.9641723626 c 1
463.500665373 476 m 0
 434.144334499 476 411.937029927 469.214126686 394.522641397 458.891958427 c 0
 362.272699004 439.776194978 346.374129663 407.035906281 346.496660978 374.095743907 c 0
 346.676213413 325.826561374 380.332629045 277 458 277 c 0
 540.27320584 277 580.28683096 332.711639227 580.190874453 383.466051749 c 0
 580.104762777 429.01322387 548.656954146 476 464 476 c 0
 463.500665373 476 l 0
312.984121719 442.733990239 m 1
 186.475673622 389.420965177 77.8711643122 285.085638052 16.1383643841 232.906723827 c 0
 5.73854037689 224.116396393 -10.3029487381 225.461811609 -19.0932761727 235.861635616 c 0
 -27.8836036073 246.261459623 -26.5381883912 262.302948738 -16.1383643841 271.093276173 c 0
 54.6020187998 330.885742911 200.650075579 475.428418492 375.618142075 515.642159707 c 0
 404.304315819 522.235239178 433.857380187 526 464 526 c 0
 571.828594986 526 630.050680105 457.66651401 630.190785094 383.560581792 c 0
 630.338707815 305.319605552 566.640088958 227 458 227 c 0
 426.39124061 227 398.545037594 233.596663258 375.265776618 245.423161596 c 0
 298.558197107 284.3927003 278.300850279 375.22856958 312.984121719 442.733990239 c 1
EndSplineSet
Validated: 37
EndChar
StartChar: h
Encoding: 104 104 44
Width: 1000
VWidth: 0
Flags: W
HStem: 567.773 50.0378<114.769 208.758> 718.132 49.9902<206.265 304.345>
VStem: 309.004 49.992<461.617 715.005>
LayerCount: 2
Back
SplineSet
909 173 m 17
 952.879882812 211.643554688 963.836914062 218.514648438 1049 297 c 1033
-76 186 m 25
 64 310 l 1049
EndSplineSet
Fore
SplineSet
1019.0372947 268.204363938 m 0
 1027.86357111 257.83503221 1026.57369567 241.788981715 1016.20436394 232.962705303 c 0
 926.329071287 156.461712154 907.915136288 84.7063346413 918.348614378 50.2378067505 c 0
 925.666347599 26.0625998421 947.395304841 10.1705543913 992.744372719 23.9239602232 c 0
 1010.0831651 29.1824464379 1027.37066964 30.5244958489 1042.95067216 23.1944222688 c 0
 1078.95511159 6.25506749025 1072.32955323 -35.6952352173 1059.83721182 -61.4657315062 c 0
 1020.86097613 -141.869949125 873.326733025 -232.378004816 649.079900466 -123.488917852 c 0
 419.826609401 -12.1688101715 511.430515598 219.841065927 538.063386504 308.21377393 c 0
 554.006395168 361.11557541 529.835243026 397.469788248 494.546655277 411.044453744 c 0
 450.763230584 427.886877383 378.49579387 410.920735582 337.437397354 304.035297843 c 0
 332.55445721 291.323764052 317.846831635 284.779662502 305.135297843 289.662602646 c 0
 292.423764052 294.54554279 285.879662502 309.253168365 290.762602646 321.964702157 c 0
 338.725210697 446.823556655 437.469412605 486.572495858 512.498065 457.710789457 c 0
 571.674817231 434.946925332 608.970773781 370.217757924 585.936613496 293.78622607 c 0
 555.731537478 193.560292007 484.173390599 12.1688101715 670.920099534 -78.5110821477 c 0
 876.733950877 -178.449538809 990.433751235 -90.0132169233 1014.84483108 -39.655511992 c 0
 1018.8102167 -31.4753036537 1019.96364624 -25.0301692874 1019.89367487 -21.8141751908 c 1
 1017.74530049 -21.7204534394 1013.40758796 -22.0582016554 1007.25562728 -23.9239602232 c 0
 943.965556918 -43.1184897594 887.18797264 -19.4023495271 870.492953308 35.7520998799 c 0
 851.007316323 100.125764737 887.272364978 188.87760562 983.795636062 271.037294697 c 0
 994.16496779 279.863571108 1010.21101828 278.573695666 1019.0372947 268.204363938 c 0
-19.1102598883 235.881750498 m 0
 -27.8896310453 246.290825283 -26.5273242866 262.330888731 -16.1182495018 271.110259888 c 0
 130.467231292 394.745488639 218.185251039 543.529511441 209.572412389 576.778833851 c 0
 209.572412389 576.778833851 212.207640706 586.152643245 176.297054853 576.806052406 c 0
 154.958944696 571.252297708 137.428441871 568.280387268 122.379046922 567.772852236 c 0
 95.7822090701 566.875884152 63.0702152981 577.398263241 62.046408755 610.337645528 c 0
 60.0186340454 675.578141205 186.692187689 766.482501487 269.344539941 768.122528478 c 0
 319.50864816 769.117908394 357.783708696 733.335509518 358.996014984 665.44635741 c 0
 361.008738569 552.733836643 345.107360869 20.3782829501 220.79259767 -119.600806979 c 0
 211.750384621 -129.782387355 195.680773398 -130.734810719 185.499193021 -121.69259767 c 0
 175.317612645 -112.650384621 174.365189281 -96.5807733982 183.40740233 -86.3991930214 c 0
 282.892639131 25.6217170499 310.991261431 553.266163357 309.003985016 664.55364259 c 0
 308.136042747 713.158409688 292.088637475 718.563985474 270.336468291 718.132368665 c 0
 219.515867257 717.123962308 131.978534275 652.776400135 114.28255612 617.810638699 c 1
 122.618825508 617.295451688 139.699254199 618.946411594 163.702945147 625.193947594 c 0
 204.65804733 635.853494738 247.465675663 629.88694428 257.974857682 589.316907452 c 0
 278.478290658 510.164692807 161.289778054 355.332392981 16.1182495018 232.889740112 c 0
 5.70917471689 224.110368955 -10.3308887314 225.472675713 -19.1102598883 235.881750498 c 0
EndSplineSet
Validated: 37
EndChar
StartChar: i
Encoding: 105 105 6
Width: 612
VWidth: 0
Flags: W
HStem: 399 50<156.092 202.136> 555 50<300.287 347.392>
LayerCount: 2
Back
SplineSet
533 186 m 29
 673 310 l 1053
-76 186 m 25
 64 310 l 1049
EndSplineSet
Fore
SplineSet
302.643177131 736.354764459 m 0
 315.908855678 733.281009674 324.428519245 719.622501416 321.354764459 706.356822869 c 0
 312.214519727 666.909450866 306.207499483 634.227974933 299.806607728 602.529885546 c 1
 308.485655898 604.63362193 312.800279435 605 320 605 c 0
 443.337195636 605 441.439369402 293.033707105 486.717964566 240.460297097 c 0
 501.838030132 222.904244321 524.504631416 211.32684262 592.657520655 270.832017231 c 0
 602.915040796 279.787991569 618.976042893 278.699999486 627.932017231 268.442479345 c 0
 636.887991569 258.184959204 635.799999486 242.123957107 625.542479345 233.167982769 c 0
 552.616588743 169.495438547 490.046996499 159.976138993 448.832035806 207.831224141 c 0
 354.700911611 317.127772959 390.381637256 555 320 555 c 0
 302.165312755 555 292.439578781 542.816254293 272.245165327 491.798788725 c 0
 272.245165327 491.798788725 225.07925657 508.266225596 225.079489002 508.266990683 c 0
 248.417738794 585.088729581 253.272349157 634.033878 272.645235541 717.643177131 c 0
 275.718990326 730.908855678 289.377498584 739.428519245 302.643177131 736.354764459 c 0
-19.6929515473 236.599101995 m 0
 -28.0815919961 247.325560274 -26.1273562838 263.304311098 -15.4008980049 271.692951547 c 0
 51.9225431655 324.343335027 110.998438064 449 185 449 c 0
 192.356041578 449 199.437692184 448.340934374 206.322895541 446.690239767 c 0
 264.419774357 432.761790654 255.579291759 369.239526396 241.253562504 311.936609374 c 0
 211.250035269 191.922500437 200.92647256 158.570770503 183.760122384 35.5450992022 c 0
 178.90524319 0.751798307443 203.173375658 -60.5041747978 226.71970883 -72.8644546781 c 0
 238.776611667 -79.1935375321 243.564628176 -94.5628059936 237.235545322 -106.61970883 c 0
 230.906462468 -118.676611667 215.537194006 -123.464628176 203.48029117 -117.135545322 c 0
 150.826624342 -89.4958252022 127.09475681 -8.75179830744 134.239877616 42.4549007978 c 0
 151.630168064 167.085479497 163.064417855 205.335312063 192.746437496 324.063390626 c 0
 209.893762133 392.652689173 199.393547258 396.934648802 194.665961434 398.068064916 c 0
 192.514769192 398.583802977 189.294606345 399 185 399 c 0
 159.001561936 399 104.077456834 301.656664973 15.4008980049 232.307048453 c 0
 4.67443972604 223.918408004 -11.3043110984 225.872643716 -19.6929515473 236.599101995 c 0
EndSplineSet
Validated: 33
EndChar
StartChar: j
Encoding: 106 106 45
Width: 924
VWidth: 0
Flags: W
HStem: 491.799 21G<540.079 597.342> 555 50<615.287 662.392>
LayerCount: 2
Back
SplineSet
826 164 m 29
 966 288 l 1053
-94 169 m 25
 46 293 l 1049
EndSplineSet
Fore
SplineSet
617.643177131 736.354764459 m 0
 630.908855678 733.281009674 639.428519245 719.622501416 636.354764459 706.356822869 c 0
 627.214519727 666.909450866 621.207499483 634.227974933 614.806607728 602.529885546 c 1
 623.485655898 604.63362193 627.800279435 605 635 605 c 0
 758.337195636 605 756.439369402 293.033707105 801.717964566 240.460297097 c 0
 816.838030132 222.904244321 839.504631416 211.32684262 907.657520655 270.832017231 c 0
 917.915040796 279.787991569 933.976042893 278.699999486 942.932017231 268.442479345 c 0
 951.887991569 258.184959204 950.799999486 242.123957107 940.542479345 233.167982769 c 0
 867.616588743 169.495438547 805.046996499 159.976138993 763.832035806 207.831224141 c 0
 669.700911611 317.127772959 705.381637256 555 635 555 c 0
 617.165312755 555 607.439578781 542.816254293 587.245165327 491.798788725 c 0
 540.079489002 508.266990683 l 0
 563.417738794 585.088729581 568.272349157 634.033878 587.645235541 717.643177131 c 0
 590.718990326 730.908855678 604.377498584 739.428519245 617.643177131 736.354764459 c 0
-18.6208833931 235.31879196 m 0
 -27.706889706 245.461310635 -26.8237267145 261.53487708 -16.6812080396 270.620883393 c 0
 119.508864408 392.624489961 473.672823126 633.12506643 578.498501835 517.81681985 c 0
 675.427790167 411.194602685 610.454942562 97.0996035032 393.67766953 -119.67766953 c 0
 353.28111376 -160.0742253 324.671932507 -69.4395280096 322.675273533 -64.8140906444 c 0
 284.763017807 23.0130078224 249.319788158 216.671567294 464.234571118 308.971140872 c 0
 476.746610442 314.344693488 491.697588256 308.377468207 497.071140872 295.865428882 c 0
 502.444693488 283.353389558 496.477468207 268.402411744 483.965428882 263.028859128 c 0
 305.494149125 186.380697514 334.313653057 34.3850120932 368.580879504 -44.9980531886 c 0
 371.707428947 -52.2409819075 374.743563569 -58.505388879 377.754108651 -64.1525136512 c 1
 571.580791568 145.025245423 602.633744229 416.93770948 541.501498165 484.18318015 c 0
 486.327176874 544.87493357 168.491135592 369.375510039 16.6812080396 233.379116607 c 0
 6.53868936476 224.293110294 -9.53487708017 225.176273285 -18.6208833931 235.31879196 c 0
EndSplineSet
Validated: 37
EndChar
StartChar: k
Encoding: 107 107 46
Width: 1000
VWidth: 0
Flags: W
HStem: 227.867 48.2667<345.742 395.419> 369.152 49.6955<602.525 680.869>
VStem: 321.838 48.5234<-24.1001 204.058>
LayerCount: 2
Back
SplineSet
925 187 m 29
 1065 311 l 1053
-76 186 m 29
 64 310 l 1053
EndSplineSet
Fore
SplineSet
568.628329172 344.284226215 m 0
 557.437300314 353.00946387 556.93319209 368.699953692 563.801428118 378.752481812 c 1
 566.533508279 382.256660052 599.49853326 425.428275364 658.854741078 418.847764519 c 0
 672.388949436 417.34729796 682.448231078 404.779467281 680.947764519 391.245258922 c 0
 679.44729796 377.711050564 666.879467281 367.651768922 653.345258922 369.152235481 c 0
 624.952998266 372.299936219 606.427325213 351.914870178 602.879372707 347.60996549 c 1
 595.452396853 339.227757912 579.811730993 335.564935083 568.628329172 344.284226215 c 0
345.595323495 246.576738555 m 0
 342.641353518 259.869603451 351.283873658 273.450706528 364.576738555 276.404676505 c 0
 494.76996256 305.336504061 535.848594372 352.053413534 566.702018256 381.95300062 c 0
 576.480751102 391.429422925 592.576578314 391.176714589 602.05300062 381.397981744 c 0
 611.529422925 371.619248898 611.276714589 355.523421686 601.497981744 346.04699938 c 0
 570.37364201 315.884871838 515.23003744 258.663495939 375.423261445 227.595323495 c 0
 362.130396549 224.641353518 348.549293472 233.283873658 345.595323495 246.576738555 c 0
1019.23703082 267.966735582 m 0
 1027.9338746 257.488610552 1026.44486061 241.459812953 1015.96673558 232.762969178 c 0
 921.253181181 154.150719025 712.255285601 -49.064778594 546.63842376 17.8189540723 c 0
 464.380293428 51.0385836293 488.78162926 166.944169595 478.399161926 205.453575284 c 0
 471.818489622 229.861817691 462.669037713 251.132155319 376.62546489 227.866655682 c 0
 363.480390606 224.312331856 349.520979508 232.329460826 345.966655682 245.47453511 c 0
 342.412331856 258.619609394 350.429460826 272.579020492 363.57453511 276.133344318 c 0
 460.861436328 302.438950776 511.529277755 274.647321209 526.675367809 218.469256041 c 0
 547.161524591 142.484454245 525.542957136 80.2616421044 565.36157624 64.1810459277 c 0
 687.715636797 14.7688291644 878.746818819 183.849280975 984.033264418 271.237030822 c 0
 994.511389448 279.933874597 1010.54018705 278.444860612 1019.23703082 267.966735582 c 0
-18.6981225924 235.405416199 m 0
 -27.7369459687 245.590005919 -26.7791735205 261.659299216 -16.5945838007 270.698122592 c 0
 61.5953132335 340.09165621 222.714029464 507.694445817 308.225538306 659.283029673 c 0
 346.873803345 727.79586315 396.080318531 757.787478157 441.033188145 743.203648139 c 0
 486.437024316 728.473513343 504.596557813 675.387156579 489.366121544 629.749037711 c 1
 513.236169117 625.782516227 531.644327244 614.135721808 542.938264714 596.077395521 c 0
 573.368055679 547.42199119 541.754180737 480.109615987 476.102435642 439.708542082 c 0
 429.855142982 411.248669676 346.477865215 102.115140122 370.361695758 6.03076437418 c 0
 373.646563559 -7.18422103318 365.345749782 -20.9768279569 352.130764374 -24.2616957582 c 0
 338.915778967 -27.5465635594 325.123172043 -19.2457497815 321.838304242 -6.03076437418 c 0
 293.522134785 107.884859878 366.144857018 430.751330324 449.897564358 482.291457918 c 0
 505.548125044 516.537956801 508.243865979 557.256787266 500.546246969 569.564816779 c 0
 496.135989667 576.616552774 483.156102985 586.436462786 449.175092627 577.774636617 c 0
 410.306288041 567.866902114 425.32233047 619.67766953 425.32233047 619.67766953 c 0
 452.818656751 647.17399581 446.556338926 678.185402716 434.518946284 690.086477936 c 0
 426.745418443 697.77197448 410.766789283 705.545441197 381.879801658 676.277795038 c 0
 372.476437131 666.750517593 362.184583278 653.171276772 351.774461694 634.716970327 c 0
 261.285970536 474.305554183 98.4046867665 305.90834379 16.5945838007 233.301877408 c 0
 6.40999408096 224.263054031 -9.65929921608 225.220826479 -18.6981225924 235.405416199 c 0
EndSplineSet
Validated: 37
EndChar
StartChar: l
Encoding: 108 108 47
Width: 1000
VWidth: 0
Flags: W
LayerCount: 2
Back
SplineSet
905 169 m 25
 1045 293 l 1049
-76 185 m 25
 64 309 l 1049
EndSplineSet
Fore
SplineSet
324.267998363 55.7683780967 m 1
 330.932306248 52.2645847866 338.037588771 48.3714379266 344.474111122 44.6655614219 c 0
 587.83806907 -95.453081033 872.474558618 175.473737181 983.8243248 270.976364162 c 0
 994.160468571 279.841482758 1010.21124556 278.611818971 1019.07636416 268.2756752 c 0
 1027.94148276 257.939531429 1026.71181897 241.888754435 1016.3756752 233.023635838 c 0
 915.525441382 146.526262819 604.16193093 -162.546918967 319.525888878 1.33443857815 c 0
 309.126205469 7.32213508629 298.540026715 12.9193471822 288.442066582 17.8431710053 c 1
 213.818394492 -57.1421379183 135.894588781 -114.684560685 67.1319718026 -95.038098691 c 0
 62.8034545935 -93.8013794884 58.6370921592 -92.4140019325 54.6334744371 -90.8765398411 c 0
 3.09843474549 -71.0861464009 -18.319076718 -24.1892004892 -1.48285956524 19.3828707305 c 0
 25.8039828167 90.0011235622 135.033070801 132.970457511 276.539529886 77.6662680142 c 1
 470.782583959 287.422639654 658.344863875 662.935946266 634.154901492 707.79299904 c 1
 622.046356804 722.196861545 496.908726934 654.373176491 334.573213578 517.906230251 c 0
 203.228613903 407.491718649 71.6732345796 282.2079198 16.5990907909 233.305878333 c 0
 6.41668031553 224.264600066 -9.6528434005 225.218498734 -18.6941216674 235.400909209 c 0
 -27.7353999343 245.583319684 -26.7815012662 261.6528434 -16.5990907909 270.694121667 c 0
 50.0972481985 329.915870942 237.753717974 509.709266947 397.444773649 633.114923054 c 0
 500.11500484 712.456168493 622.84240046 804.208184036 673.782125035 738.286187527 c 0
 741.429843084 650.742081816 511.743654294 263.714757068 324.267998363 55.7683780967 c 1
238.057729403 38.4266448542 m 1
 118.504502274 77.4097250667 54.3570535593 29.8956188083 44.4000615776 -0.765548745032 c 0
 39.1358001983 -16.9761071639 42.9006518928 -36.1140795076 80.8680281974 -46.961901309 c 0
 110.824765789 -55.5209691924 168.617368709 -28.0812056794 238.057729403 38.4266448542 c 1
EndSplineSet
Validated: 33
EndChar
StartChar: m
Encoding: 109 109 48
Width: 1000
VWidth: 0
Flags: W
LayerCount: 2
Back
SplineSet
925 186 m 25
 1065 310 l 1049
-76 185 m 25
 64 309 l 1049
EndSplineSet
Fore
SplineSet
-18.5246737859 235.212014382 m 0
 -27.6688402604 245.302129112 -26.878100349 261.380507311 -16.7879856185 270.524673786 c 0
 39.5345332917 321.566956548 128.404871369 421.299032716 194.724087019 408.64932254 c 0
 248.470366887 398.397770908 248.26828877 332.232992253 231.529555503 247.172898716 c 0
 200.172764114 87.8292036989 215.548207602 20.2448664093 224.885590269 9.52974046514 c 1
 232.659296454 13.2075175941 251.482439452 36.2275075695 259.605260575 72.4677864229 c 0
 275.315004755 142.557414306 263.781456543 290.456951357 289.363871408 379.194390656 c 0
 302.36330884 424.285395399 334.450167808 467.659215167 391.951446617 451.014108144 c 0
 519.270327394 414.158673089 461.409154831 17.6253327137 476.331754282 -22.743188797 c 1
 482.155718109 -26.243671799 485.526626954 -27.3873338188 487.307765596 -27.7857585829 c 1
 499.626968846 -12.5830275108 510.079358893 78.0502308376 521.048685538 253.559457154 c 0
 528.715886701 376.234675763 551.407895776 494.339317417 615.991280396 499.703463525 c 0
 683.787065387 505.334424155 709.341096963 388.67522228 724.915213188 200.057219438 c 0
 727.500337685 168.748489414 735.011740508 151.015793952 742.145746488 142.339694744 c 0
 782.102618933 93.745708369 929.890124789 226.524867333 984.198519729 271.291006329 c 0
 994.706044416 279.952306505 1010.72970615 278.409004958 1019.39100633 267.901480271 c 0
 1028.0523065 257.393955584 1026.50900496 241.370293847 1016.00148027 232.708993671 c 0
 992.51095241 213.345868753 792.078615495 2.88833718795 703.525180614 110.583563185 c 0
 686.871108429 130.837594778 678.122642566 159.150971987 675.084786812 195.942780562 c 0
 661.825332491 356.527930749 634.594516441 433.766418251 619.493315014 448.656657426 c 1
 603.824338173 434.120424393 577.724900262 358.817915647 570.951314462 250.440542846 c 0
 558.650896424 53.6338542406 564.423828066 -83.5334109041 484.616375414 -77.7972516339 c 0
 470.410117136 -76.7761770674 458.273861106 -70.7132058617 446.352988066 -62.946576457 c 0
 360.65823272 -7.11413585103 466.396380901 377.411541851 378.048553383 402.985891856 c 0
 358.403280468 408.672681385 348.377187965 403.395286082 337.407202025 365.343817267 c 0
 316.119470553 291.503298718 327.090167659 144.942585694 308.394739425 61.5322135771 c 0
 297.110008929 11.1849544408 264.7417565 -51.7447271111 213.391349692 -39.6492663619 c 0
 152.137831783 -25.2211523959 147.070695303 76.9385798732 182.470444497 256.827101284 c 0
 196.684224625 329.056310508 187.901201015 356.924442324 185.493514137 359.50526845 c 1
 167.788779608 363.737958104 83.6194277555 294.041320651 16.7879856185 233.475326214 c 0
 6.69787088797 224.33115974 -9.38050731138 225.121899651 -18.5246737859 235.212014382 c 0
EndSplineSet
Validated: 33
EndChar
StartChar: n
Encoding: 110 110 2
Width: 1000
VWidth: 0
Flags: W
HStem: 410 50<167.275 198.436> 478 50<437.231 524.904>
LayerCount: 2
Back
SplineSet
925 436 m 29
 1065 560 l 1053
-76 436 m 29
 64 560 l 1053
EndSplineSet
Fore
SplineSet
-18.8819256854 235.614857876 m 0
 -27.8066692902 245.899562411 -26.6698466588 261.95718208 -16.3851421237 270.881925685 c 0
 95.857711309 368.282748912 123.331285477 460 195 460 c 0
 198.765583283 460 202.519845259 459.707398312 206.248398675 459.0438343 c 0
 214.380998396 457.596490008 222.429284084 454.246701985 229.083527761 448.874833382 c 0
 301.506048361 390.409246087 155.641665923 137.692495525 143.424572841 70.4948616276 c 1
 205.265501005 136.261212715 314.136660793 528 485 528 c 0
 650.036574702 528 541.137036795 179.018681488 624.175561356 146.255302058 c 0
 755.988101756 94.2476330563 863.89024788 171.28692499 984.11921868 271.225364194 c 0
 994.590989071 279.929858474 1010.62086991 278.452551711 1019.32536419 267.98078132 c 0
 1028.02985847 257.509010929 1026.55255171 241.479130086 1016.08078132 232.774635806 c 0
 898.10975212 134.71307501 768.011898244 35.7523669437 605.824438644 99.7446979422 c 0
 413.167650705 175.758662262 617.479050298 478 485 478 c 0
 349.168052612 478 255.340970439 12 133 12 c 0
 102.437243244 12 91.9797058556 40.5320918843 92.1207565035 58.9877006272 c 0
 92.8050876776 148.528220939 214.369557189 368.497741435 197.542419954 409.807577031 c 1
 197.219877065 409.864979414 196.224333856 410 195 410 c 0
 170.668714523 410 146.142288691 345.717251088 16.3851421237 233.118074315 c 0
 6.10043758851 224.19333071 -9.95718208048 225.330153341 -18.8819256854 235.614857876 c 0
EndSplineSet
Validated: 33
EndChar
StartChar: o
Encoding: 111 111 3
Width: 1000
VWidth: 0
Flags: W
HStem: 31 50<283.522 445.233> 125 50<635.278 860.042> 426 20G<213.571 309.248> 457 50<411.835 518.696>
VStem: 150 50<163.982 311.636> 348 50<333.878 443.027> 562 50<235.168 411.969>
LayerCount: 2
Back
SplineSet
925 184 m 29
 1065 308 l 1053
-76 184 m 29
 64 308 l 1053
EndSplineSet
Fore
SplineSet
589.47155263 213.387487665 m 1
 650.127913493 188.709133098 711.737745628 175 747 175 c 0
 797.907348287 175 910.235079658 197.581686532 982.433515326 269.688847313 c 0
 992.068367788 279.311519178 1008.16617545 279.301337136 1017.78884731 269.666484674 c 0
 1027.41151918 260.031632212 1027.40133714 243.933824552 1017.76648467 234.311152687 c 0
 931.764920342 148.418313468 808.092651713 125 747 125 c 0
 700.660017005 125 634.572024819 140.826474677 568.500585289 167.946755083 c 1
 528.932364331 95.739662518 462.222821836 31 377 31 c 0
 235.610530956 31 150 129.633008864 150 252 c 0
 150 304.798755091 169.3017011 344.403613123 192.698112482 373.056128951 c 1
 147.547517709 345.282995353 88.1193955143 291.263008893 15.7450489605 232.581106282 c 0
 5.16786591167 224.005011918 -10.842799354 225.677767991 -19.418893718 236.254951039 c 0
 -27.9949880819 246.832134088 -26.3222320094 262.842799354 -15.7450489605 271.418893718 c 0
 92.1061886668 358.865843146 172.141631779 446 255 446 c 0
 363.495183788 446 200 330.487532079 200 252 c 0
 200 154.831834886 262.389469044 81 377 81 c 0
 433.978479429 81 487.429386993 125.72585374 522.887984432 188.780178245 c 1
 435.368339145 233.005016431 348 301.707572242 348 394 c 0
 348 448.41824726 387.851951486 507 453 507 c 0
 527.183772367 507 612 453.417766703 612 326 c 0
 612 289.971071874 603.848263075 250.98804723 589.47155263 213.387487665 c 1
543.883871641 234.192785915 m 1
 555.635312066 265.931135207 562 298.437419357 562 326 c 0
 562 426.582233297 502.783024509 457 453 457 c 0
 422.148048514 457 398 427.58175274 398 394 c 0
 398 336.372454664 459.446158651 277.231427303 543.883871641 234.192785915 c 1
EndSplineSet
Validated: 33
EndChar
StartChar: p
Encoding: 112 112 49
Width: 428
VWidth: 0
Flags: W
HStem: 392.169 20G<93.6604 154.071> 445 50<202.459 315.599>
VStem: 334 50<334.347 427.53>
LayerCount: 2
Back
SplineSet
350 186 m 25
 490 310 l 1049
-74 186 m 25
 66 310 l 1049
EndSplineSet
Fore
SplineSet
85.4928531192 257.153768732 m 0
 72.50416505 261.242800161 65.0647373023 275.518458812 69.1537687315 288.507146881 c 0
 84.9597677222 338.714437792 137.416263175 495 251 495 c 0
 352.605732485 495 384 425.058990894 384 365 c 0
 384 194.868398905 144.393020865 233.830536741 197.12295556 133.643660821 c 0
 197.892002731 132.182471195 198.612742866 131.132630785 199.229359629 130.377369209 c 0
 216.316445871 109.44829225 313.171109457 190.49055575 409.750279537 271.184839857 c 0
 420.199976923 279.915820347 436.233546867 278.47910535 444.964527357 268.029407963 c 0
 453.695507847 257.579710577 452.25879285 241.546140633 441.809095463 232.815160143 c 0
 377.589211148 179.157859236 227.528056098 16.654857015 160.498226555 98.7561843667 c 0
 157.578396408 102.33253138 155.050442116 106.226883597 152.87704444 110.356339179 c 0
 85.6069791355 238.169463259 334 305.131601095 334 365 c 0
 334 408.941009106 321.394267515 445 251 445 c 0
 186.583736825 445 135.040232278 331.285562208 116.846231268 273.492853119 c 0
 112.757199839 260.50416505 98.4815411884 253.064737302 85.4928531192 257.153768732 c 0
-16.2179145231 234.87961477 m 0
 -25.5431341302 244.802642285 -25.0434127454 260.892694916 -15.1203852301 270.217914523 c 0
 37.1035451529 319.295639927 73.0724421701 360.224429542 114.248393522 412.169460992 c 0
 114.248393522 412.169460992 166.779103419 423.136513305 157.995752926 390.198215998 c 0
 136.769594985 310.598352428 106.207339485 254.961065702 102.231131127 229.013403819 c 0
 66.7723593082 -2.40503592662 123.579932051 -71.6757818635 243.151167724 -128.629843259 c 0
 430.644835176 -217.937383588 637.578939226 -164.737233249 809.074708559 -54.6417588553 c 0
 820.533755891 -47.2853718319 836.262010371 -50.7148799772 843.618397395 -62.1739273089 c 0
 850.974784418 -73.6329746406 847.545276273 -89.3612291213 836.086228941 -96.7176161447 c 0
 656.66129515 -211.903391751 430.769227324 -273.379022662 221.649613526 -173.770547365 c 0
 83.7696773249 -108.095702511 15.3077188168 -8.15551094838 52.8079313734 236.586205557 c 0
 54.9811643055 250.76813674 59.2847985231 263.360552022 65.3154582778 279.308975909 c 1
 51.5455457915 265.03568858 35.7536136948 249.41325328 19.1203852301 233.782085477 c 0
 9.19735771487 224.45686587 -6.89269491608 224.956587255 -16.2179145231 234.87961477 c 0
EndSplineSet
Validated: 37
EndChar
StartChar: q
Encoding: 113 113 50
Width: 579
VWidth: 0
Flags: W
HStem: 193.032 49.9366<207.817 317.574>
LayerCount: 2
Fore
SplineSet
598.05353703 268.185262638 m 0
 606.869409247 257.807083952 605.563441324 241.762335188 595.185262638 232.94646297 c 0
 497.825667926 150.243151333 358.630075052 59.0605396204 350.027821191 -53.8983494599 c 0
 348.99381843 -67.4761634989 336.779464579 -77.9618239524 323.20165054 -76.927821191 c 0
 309.623836501 -75.8938184295 299.138176048 -63.6794645791 300.172178809 -50.1016505401 c 0
 311.369924948 96.9394603796 474.174332074 195.756848667 562.814737362 271.05353703 c 0
 573.192916048 279.869409247 589.237664812 278.563441324 598.05353703 268.185262638 c 0
406.340039971 333.847994365 m 0
 402.872834063 312.658972593 399.497061793 291.59729185 396.256180876 271.012651108 c 0
 375.733001679 140.658503106 358.345969084 15.5121209332 333.815723232 -145.759391586 c 0
 331.76803846 -159.221679017 318.802895844 -168.763408005 305.340608414 -166.715723232 c 0
 291.878320983 -164.66803846 282.336591995 -151.702895844 284.384276768 -138.240608414 c 0
 304.9383765 -3.10984892502 320.554967336 107.206518218 337.250046165 216.70310281 c 1
 308.490605405 198.046802932 273.813238006 191.107763666 237.73970486 193.031685433 c 1
 149.004306074 197.257180614 134.095779163 298.290191209 138.051867276 359.60955695 c 0
 143.447850772 440.549309389 170.741668118 487.489338413 243.729913643 543.794556389 c 0
 254.51171457 552.111945676 270.477167102 550.051887285 278.794556389 539.270086357 c 0
 287.111945676 528.48828543 285.051887285 512.522832898 274.270086357 504.205443611 c 0
 207.252873133 452.506450552 192.553915019 425.476315828 187.946409432 356.363732018 c 1
 183.905661393 293.732137415 202.995561686 244.742825684 240.26029514 242.968314567 c 1
 286.376465026 240.508785506 318.124735376 254.849067948 338.415844595 288.931056356 c 0
 346.453330936 302.431230906 352.991928722 320.148336229 357.052274484 342.26419348 c 0
 357.4769549 344.857913522 357.908765123 347.488794988 358.331764537 350.059329886 c 1
 358.184453234 349.070239708 407.87456575 343.306307601 407.727254447 342.317217423 c 0
 407.299953355 339.448195802 406.840063493 336.639205711 406.340039971 333.847994365 c 0
-19.3489324801 236.169055244 m 0
 -27.9718130085 246.708131445 -26.3700209579 262.726051952 -15.8309447564 271.34893248 c 0
 50.2075064409 325.380392551 87.21727026 355.388330334 153.283414587 409.360672144 c 0
 163.828885209 417.975731352 179.845612937 416.362056035 188.460672144 405.816585413 c 0
 197.075731352 395.271114791 195.462056035 379.254387063 184.916585413 370.639327856 c 0
 118.78272974 316.611669666 81.7924935591 286.619607449 15.8309447564 232.65106752 c 0
 5.29186855497 224.028186991 -10.7260519516 225.629979042 -19.3489324801 236.169055244 c 0
EndSplineSet
Validated: 37
EndChar
StartChar: r
Encoding: 114 114 51
Width: 1000
VWidth: 0
Flags: W
HStem: 355 50<444.445 557.229> 476 50<472.555 563.303>
VStem: 564.068 49.9995<411.536 473.175>
LayerCount: 2
Back
SplineSet
925 186 m 25
 1065 310 l 1049
-76 186 m 25
 64 310 l 1049
EndSplineSet
Fore
SplineSet
419.208457203 379.195374814 m 1
 378.978820384 283.383233455 391.897857671 164.372593781 456.712565747 130.086552552 c 0
 644.801497955 30.3424218352 752.713153338 48.9442394481 982.673827948 270.022312893 c 0
 992.49031416 279.459621526 1008.58500426 279.142658264 1018.02231289 269.326172052 c 0
 1027.45962153 259.50968584 1027.14265826 243.41499574 1017.32617205 233.977687107 c 0
 781.286846662 7.05576055185 641.198502045 -24.3424218352 433.287434253 85.9134474483 c 0
 329.706211754 140.706412973 329.399039894 295.276669124 373.345131342 399.112174308 c 1
 326.301234711 421.229251014 277.158736979 448.912047076 238.292233255 474.701054996 c 1
 190.413086028 397.06199425 85.7543756868 294.361762104 16.5461243296 233.258981627 c 0
 6.33816991492 224.246553405 -9.72859015136 225.245921256 -18.7410183733 235.45387567 c 0
 -27.7534465953 245.661830085 -26.7540787443 261.728590151 -16.5461243296 270.741018373 c 0
 51.3699615455 330.702968065 157.152661564 436.393065586 197.64408725 504.097371188 c 1
 183.101932966 515.819991522 133.954215225 548.390990507 162.755837977 582.829196915 c 0
 176.46334111 599.219308899 194.992654654 597.083205576 209.068998982 595.914237761 c 0
 242.307270722 593.153970678 266.113354067 569.65955226 263.424115307 537.868181339 c 0
 262.936519167 532.103966582 261.665266416 526.109108129 260.001740025 520.353363118 c 1
 297.658400042 494.764443743 348.722981884 465.800623949 396.688732382 443.393208724 c 1
 426.863478591 489.693270696 472.136705668 526 529 526 c 0
 582.908271872 526 614.257485784 488.002520793 614.067652209 447.135322683 c 0
 613.856300161 401.635647528 576.606805576 355 515 355 c 0
 487.796937839 355 455.18875962 364.990976684 419.208457203 379.195374814 c 1
443.522828123 423.381612319 m 1
 474.338123678 411.581465176 501.258732251 405 515 405 c 0
 549.026734797 405 563.979244334 428.219084157 564.068191631 447.367576834 c 0
 564.136997377 462.180014603 557.244742095 476 529 476 c 0
 497.049406653 476 467.685325634 457.235774731 443.522828123 423.381612319 c 1
EndSplineSet
Validated: 524321
EndChar
StartChar: s
Encoding: 115 115 4
Width: 578
VWidth: 0
Flags: W
HStem: 502.061 20G<260.108 282.123>
VStem: 364 50<131.227 215.717>
LayerCount: 2
Back
SplineSet
506 186 m 29
 646 310 l 1053
-76 186 m 25
 64 310 l 1049
EndSplineSet
Fore
SplineSet
215.543395541 407.867949853 m 0
 209.06975802 399.852658405 204.661966991 392.207285445 201.748455188 384.133047932 c 0
 198.650998815 375.549043431 197 365.999156579 197 354 c 0
 197 286.44443197 414 321.12766427 414 188 c 0
 414 168.012938849 411.506836203 147.318235966 407.687011587 130.643118433 c 1
 462.033394834 178.562682984 507.213564006 219.461905983 560.938513838 270.179202202 c 0
 570.840455327 279.526808877 586.931595528 279.063427651 596.279202202 269.161486162 c 0
 605.626808877 259.259544673 605.163427651 243.168404472 595.261486162 233.820797798 c 0
 503.762841845 147.444470561 434.351075989 87.0884695468 312.396807107 -18.8717968591 c 1
 313.128701082 -18.1903783312 278.232642828 17.6159308329 278.964536802 18.2973493608 c 0
 334.379493143 69.8905845746 364 118.558507259 364 188 c 0
 364 252.221125908 154.301564432 214.431295099 147.11506073 349.305477155 c 1
 106.223750124 313.211410097 64.6995689194 275.16948345 16.4131119506 233.142382014 c 0
 6.14164745844 224.20240366 -9.9176396315 225.315423557 -18.8576179858 235.586888049 c 0
 -27.7975963401 245.858352542 -26.6845764427 261.917639632 -16.4131119506 270.857617986 c 0
 44.6074934187 323.968144881 94.9959098725 370.930578029 148.542115596 416.856686684 c 0
 158.761241665 425.621541034 169.493778631 434.676835861 180.232564729 443.558008993 c 0
 203.909620136 470.574692782 237.685694377 493.381345044 282.530607757 522.061231507 c 1
 281.715427349 521.482024375 311.295358713 481.199696926 310.480178305 480.620489793 c 0
 275.947526222 456.084131735 244.921590362 432.01967588 215.543395541 407.867949853 c 0
EndSplineSet
Validated: 33
EndChar
StartChar: t
Encoding: 116 116 52
Width: 502
VWidth: 0
Flags: W
HStem: 26 50<202.778 318.429>
LayerCount: 2
Back
SplineSet
640 186 m 25
 780 310 l 1049
-72 186 m 25
 68 310 l 1049
EndSplineSet
Fore
SplineSet
-127.004609992 481.79446801 m 0
 -137.465578076 490.511941413 -138.923005393 506.543641908 -130.20553199 517.004609992 c 0
 161.471962655 867.017603566 537.817554144 291.42358812 836.09948936 640.247479663 c 0
 844.949250266 650.596775662 860.998183664 651.850271547 871.347479663 643.00051064 c 0
 881.696775662 634.150749734 882.950271547 618.101816336 874.10051064 607.752520337 c 0
 536.182445856 212.57641188 156.528037345 782.982396434 -91.7944680101 484.995390008 c 0
 -100.511941413 474.534421924 -116.543641908 473.076994607 -127.004609992 481.79446801 c 0
300.378856531 831.172508959 m 0
 313.545263213 827.698040529 321.646977389 813.787550151 318.172508959 800.621143469 c 0
 259.204161104 577.162141071 156.799331276 467.383042735 171.937460332 253.767221598 c 0
 181.406771085 120.144725421 192.446256051 76 251 76 c 0
 337.090331462 76 392.421073101 170.330768406 483.75489054 268.984020693 c 0
 493.005834409 278.976329402 509.091711985 279.596053328 519.084020693 270.34510946 c 0
 529.076329402 261.094165591 529.696053328 245.008288015 520.44510946 235.015979307 c 0
 439.578926899 147.669231594 372.909668538 26 251 26 c 0
 141.553743949 26 130.593228915 129.855274579 122.062539668 250.232778402 c 0
 105.581910652 482.792765625 214.795838896 604.837858929 269.827491041 813.378856531 c 0
 273.301959471 826.545263213 287.212449849 834.646977389 300.378856531 831.172508959 c 0
-18.5525660688 235.242843551 m 0
 -27.6799403526 245.348150794 -26.862463692 261.425191785 -16.7571564492 270.552566069 c 0
 76.6579861937 354.927533617 106.19915475 383.292624077 146.749973226 464.201620562 c 0
 152.851329608 476.37534826 168.127892863 481.451383156 180.301620562 475.350026774 c 0
 192.47534826 469.248670392 197.551383156 453.972107137 191.450026774 441.798379438 c 0
 147.80084525 354.707375923 109.342013806 317.072466383 16.7571564492 233.447433931 c 0
 6.65184920642 224.320059647 -9.42519178496 225.137536308 -18.5525660688 235.242843551 c 0
EndSplineSet
Validated: 37
EndChar
StartChar: u
Encoding: 117 117 53
Width: 710
VWidth: 0
Flags: W
HStem: 79 50<201.89 286.692 416.608 528.982> 360 50<145.381 206.443>
VStem: 151.62 49.9998<129.586 220.131>
LayerCount: 2
Back
SplineSet
631 186 m 29
 771 310 l 1053
-76 186 m 25
 64 310 l 1049
EndSplineSet
Fore
SplineSet
-18.6142360162 235.311374606 m 0
 -27.7042824517 245.450272554 -26.8275233412 261.524189581 -16.6886253938 270.614236016 c 0
 68.1988871284 346.720281726 129.299990905 410 200 410 c 0
 215.408250996 410 231.078552372 405.914549348 242.365892393 394.336230893 c 0
 293.460780057 341.924158626 201.73989243 194.832321356 201.619606222 150.60730596 c 0
 201.574448137 134.004263366 201.499669224 129 228 129 c 0
 313.921499685 129 366.998116405 256.029421954 426.72092211 373.342076017 c 0
 427.174605151 374.233239132 470.825394849 349.766760868 471.27907789 350.657923983 c 0
 439.908745826 289.037628858 415.177906448 215.729935168 415.017911593 171.250852801 c 0
 414.900720036 138.671224122 422.180986912 133 439 133 c 0
 546.579724821 133 589.762293319 188.57077914 691.300264644 271.37442548 c 0
 701.853226504 279.980306712 717.868544249 278.352697216 726.47442548 267.799735356 c 0
 735.080306712 257.246773496 733.452697216 241.231455751 722.899735356 232.62557452 c 0
 628.237706681 155.42922086 568.822886791 83 439 83 c 0
 391.565178162 83 368.584194683 119.088063917 365.441261003 158.888628698 c 1
 332.261611734 115.855821953 287.272282167 79 228 79 c 0
 177.419499367 79 151.513317012 111.596491879 151.619791163 150.743298861 c 0
 151.828143415 227.347106413 213.291232907 334.595033523 206.422782498 359.282025604 c 1
 205.613559317 359.524879135 203.47325141 360 200 360 c 0
 160.700009095 360 105.801112872 313.279718274 16.6886253938 233.385763984 c 0
 6.54972744642 224.295717548 -9.52418958058 225.172476659 -18.6142360162 235.311374606 c 0
EndSplineSet
Validated: 33
EndChar
StartChar: v
Encoding: 118 118 5
Width: 781
VWidth: 0
Flags: W
HStem: -25 50<183.2 317.674> 123 50<499.072 672.588> 355 50<418.906 470.15> 549 50<281.487 330.003>
VStem: 118 50<40.2917 169.564> 368 50<246.787 353.678> 472 50<226.082 354.294>
LayerCount: 2
Back
SplineSet
710 186 m 25
 850 310 l 1049
-76 186 m 25
 64 310 l 1049
EndSplineSet
Fore
SplineSet
497.801910485 193.865470939 m 1
 522.73666818 181.153463313 554.318852251 173 593 173 c 0
 656.409105147 173 699.607225508 205.958045821 765.709938636 269.960672753 c 0
 775.492850378 279.432780946 791.58856456 279.172973107 801.060672753 269.390061364 c 0
 810.532780946 259.607149622 810.272973107 243.51143544 800.490061364 234.039327247 c 0
 734.392774492 170.041954179 677.590894853 123 593 123 c 0
 548.249243088 123 509.282575427 132.283520984 477.067227214 148.320752645 c 1
 431.05578012 60.6403081414 349.470859375 -25 243 -25 c 0
 174.618809116 -25 118 16.3906632419 118 90 c 0
 118 272.277681414 319.732768431 358.103539297 331.076311238 502.951855144 c 0
 334.087971636 541.40435394 322.897385644 549 312 549 c 0
 273.405276754 549 213.73368703 412.612051703 16.8217156349 233.505950062 c 0
 6.74828125971 224.343411349 -9.33151122417 225.10484999 -18.4940499377 235.178284365 c 0
 -27.6565886513 245.25171874 -26.89515001 261.331511224 -16.8217156349 270.494049938 c 0
 162.26631297 433.387948297 220.926754496 599 312 599 c 0
 369.102614356 599 384.33195024 542.56439606 380.923688762 499.048144856 c 0
 366.267231569 311.896460703 168 231.722318586 168 90 c 0
 168 47.5917586331 194.04330026 25 243 25 c 0
 321.754014157 25 392.965065059 93.5148231876 435.145773646 176.109087804 c 1
 390.216716642 214.999546513 368 269.572455743 368 322 c 0
 368 364.552125678 394.149277975 405 449 405 c 0
 504.029483435 405 522 355.543877171 522 308 c 0
 522 273.393602596 513.159696114 233.662296997 497.801910485 193.865470939 c 1
456.072170647 225.265765763 m 1
 466.581925155 255.739229245 472 284.964480443 472 308 c 0
 472 350.010810329 461.970516565 355 449 355 c 0
 423.850722025 355 418 345.748655572 418 322 c 0
 418 288.129044927 430.59917298 252.820976762 456.072170647 225.265765763 c 1
EndSplineSet
Validated: 33
EndChar
StartChar: w
Encoding: 119 119 55
Width: 930
VWidth: 0
Flags: W
HStem: -127 50<503.373 649.524> -47 50<63.5996 210.341> 131 50<706.074 813.02> 385 50<722.234 823.919> 454.737 20G<151.652 156.542> 587 50<482.836 524.887>
VStem: -6.49366 49.9955<23.7738 192.933> 526.415 49.9999<440.542 585.872> 634 50<203.177 346.449> 846.158 50<254.471 362.915>
LayerCount: 2
Back
SplineSet
855 186 m 29
 995 310 l 1053
-76 186 m 25
 64 310 l 1049
EndSplineSet
Fore
SplineSet
894.701467308 253.996900637 m 1
 900.767021933 259.38731098 907.318970976 265.230632371 913.544254418 270.732519538 c 0
 923.747579643 279.750188313 939.814850763 278.759070807 948.832519538 268.555745582 c 0
 957.850188313 258.352420357 956.859070807 242.285149237 946.655745582 233.267480462 c 0
 928.900924925 217.575822271 912.487083988 202.630378912 896.087760522 189.07434227 c 0
 890.710722719 184.629566141 885.035733588 180.109576853 879.461026203 175.884245975 c 0
 877.629097933 169.569418535 875.61220791 163.062224076 873.568822823 156.908033412 c 0
 828.629261717 21.5607466334 717.183866383 -127 567 -127 c 0
 452.701090609 -127 395.297368065 -19.6205957387 372.348591275 97.2479168297 c 1
 304.197347066 16.3825098817 222.609867988 -47 135 -47 c 0
 35.4929904113 -47 -7.0194288691 13.3850838478 -6.49365973846 88.4549029114 c 0
 -6.14985226632 137.544062435 9.7984841262 192.722216146 31.3950618523 246.690769041 c 1
 26.5139056837 242.21463052 21.4504970527 237.634725563 16.6446905671 233.346467468 c 0
 6.48438839102 224.28035168 -9.58741674421 225.195007257 -18.6535325321 235.355309433 c 0
 -27.71964832 245.515611609 -26.8049927432 261.587416744 -16.6446905671 270.653532532 c 0
 10.7849004783 295.129167619 36.5342406132 319.940161687 61.2275509373 347.108778535 c 0
 81.5278634956 369.444034787 101.267267577 393.578041726 120.58548036 420.400016533 c 0
 134.017449629 442.039378938 146.498002975 460.612013302 156.805226304 474.736726751 c 1
 156.279529946 473.886054464 198.792503535 447.708263357 198.266807177 446.85759107 c 0
 186.376841697 427.617465111 174.36877552 409.611435493 162.196084903 392.624682357 c 0
 148.379709964 370.266730854 133.400616723 344.301960715 119.005265692 316.752018831 c 0
 78.8974610899 239.993370602 43.7121141424 149.728141269 43.5017931464 87.4653824394 c 0
 43.3223896203 34.355333056 61.5260666423 3 135 3 c 0
 204.35159336 3 284.302336378 63.7558939455 354.264217027 154.482828575 c 0
 357.042083846 158.085180871 359.825749275 161.760740589 362.576385573 165.455961787 c 0
 361.835923926 173.25448143 361.18591345 181.273551137 360.672771003 188.979438649 c 0
 348.181815515 376.556783819 391.772574691 626.031694988 504.436144904 636.690199747 c 0
 506.610512883 636.895905206 508.801844213 637 511 637 c 0
 560.554366468 637 576.484753793 590.278390664 576.414744182 549.096930723 c 0
 576.256096541 455.77629284 515.260594364 301.052166735 428.074363253 171.494392781 c 0
 423.641297252 164.906905795 419.004201287 158.199999402 414.363922706 151.663784522 c 0
 414.922855592 147.094541 415.534207052 142.458143389 416.162674556 138.050089981 c 0
 434.658491541 8.32094956107 485.448037331 -77 567 -77 c 0
 671.376957927 -77 765.478932171 23.698671158 813.739589262 139.549314432 c 1
 797.084528568 134.095707127 778.998776512 131 760 131 c 0
 694.889178821 131 634 175.03647112 634 284 c 0
 634 345.172879358 681.868660055 435 773 435 c 0
 860.51250752 435 896.224720174 361.915155876 896.158113658 283.818835529 c 0
 896.149844454 274.12317175 895.649201104 264.121456104 894.701467308 253.996900637 c 1
408.845903305 234.071664002 m 1
 479.783066229 350.105102108 526.300117178 481.712868469 526.414816434 549.18193197 c 0
 526.476653954 585.556357357 517.576245777 587 511 587 c 0
 469.639694067 587 405.702428439 427.266121894 408.845903305 234.071664002 c 1
835.813758769 206.144824847 m 0
 837.363011607 212.449391831 838.775300838 218.810593874 839.964122917 224.871060104 c 0
 844.053848278 245.719968347 846.142628631 265.683922085 846.158131842 283.861479338 c 0
 846.215256768 350.840608205 822.702893104 385 773 385 c 0
 720.131339945 385 684 326.827120642 684 284 c 0
 684 196.96352888 721.110821179 181 760 181 c 0
 784.039666838 181 803.31375952 187.073621374 823.39330609 198.463694662 c 0
 827.461424924 200.77132504 831.631998671 203.359099768 835.813758769 206.144824847 c 0
EndSplineSet
Validated: 33
EndChar
StartChar: x
Encoding: 120 120 7
Width: 783
VWidth: 0
Flags: W
HStem: 14.072 47.8559<139.364 213.57> 65 50<446.32 602.207> 399 50<173.648 304.974> 431.018 49.9631<510.13 605.753>
VStem: 358 50<118.433 356>
LayerCount: 2
Back
SplineSet
707 186 m 29
 847 310 l 1053
-76 186 m 25
 64 310 l 1049
EndSplineSet
Fore
SplineSet
605.981529366 456.960828053 m 0xd8
 606.504878138 443.353759968 595.567896137 431.541819407 581.960828053 431.018470634 c 0
 493.217179798 427.605253394 408 344.436946817 408 222 c 0
 408 149.567417648 454.719736853 115 525 115 c 0
 602.788557803 115 684.433988109 186.770712754 765.216356117 269.469266769 c 0
 774.731606317 279.210222031 790.828311508 279.398894084 800.569266769 269.883643883 c 0
 810.310222031 260.368393683 810.498894084 244.271688492 800.983643883 234.530733231 c 0
 721.566011891 153.229287246 631.211442197 65 525 65 c 0
 435.280263147 65 358 118.432582352 358 222 c 0
 358 367.563053183 460.782820202 476.394746606 580.039171947 480.981529366 c 0
 593.646240032 481.504878138 605.458180593 470.567896137 605.981529366 456.960828053 c 0xd8
-18.2650246116 234.929883541 m 0
 -27.5628635657 244.878571221 -27.0188041403 260.967185657 -17.0701164594 270.265024612 c 0
 84.6205831169 365.303061599 127.44380106 449 259 449 c 0
 355.021868349 449 408 334.457260144 408 222 c 0
 408 94.798122114 253.150230181 39.1361018871 170.342453347 14.0720483637 c 0
 157.309253407 10.1271915716 143.116905156 17.7243467125 139.172048364 30.7575466526 c 0
 135.227191572 43.7907465926 142.824346712 57.9830948442 155.857546653 61.9279516363 c 0
 244.849769819 88.8638981129 358 141.201877886 358 222 c 0
 358 328.650019516 306.978131651 399 259 399 c 0xe8
 154.55619894 399 129.379416883 338.696938401 17.0701164594 233.734975388 c 0
 7.12142877853 224.437136434 -8.96718565748 224.98119586 -18.2650246116 234.929883541 c 0
EndSplineSet
Validated: 37
EndChar
StartChar: y
Encoding: 121 121 56
Width: 658
VWidth: 0
Flags: W
HStem: -237 50<-506.974 -228.666> -51 50<-497.098 -355.741>
VStem: -573.68 49.9999<-169.663 -76.7935> 426.93 46.5699<462.186 496.699>
LayerCount: 2
Back
SplineSet
581 186 m 29
 721 310 l 1053
-76 186 m 29
 64 310 l 1053
EndSplineSet
Fore
SplineSet
-19.5437436431 236.410192932 m 0
 -28.0352800533 247.055379881 -26.234994017 263.052207233 -15.5898070679 271.543743643 c 0
 128.906223098 386.806472908 66.1015642862 528.138924777 201.63519648 502.566541344 c 0
 342.518105574 475.984860383 256.173067651 164.774500395 324.150262026 150.463744625 c 0
 345.171051326 146.038315298 361.603972899 146.689994735 374.642569845 150.256924512 c 0
 464.749749576 174.907274846 456.495935033 388.915980724 426.930290254 494.243590247 c 0
 426.929824629 494.245249038 473.500151573 511.896934394 473.500151573 511.896934394 c 0
 537.909048366 378.904490089 544.100051179 248.493532451 506.510989267 141.366343663 c 1
 557.397384203 189.7061365 602.200098737 235.286959319 641.36614139 270.573582746 c 0
 651.482896105 279.688267043 667.55889845 278.850613325 676.673582746 268.73385861 c 0
 685.788267043 258.617103895 684.950613325 242.54110155 674.83385861 233.426417254 c 0
 590.137304793 157.119106185 468.949621101 21.0356875515 313.791139186 -80.1889558692 c 0
 228.373849493 -135.914782678 131.682717219 -181.430101654 24.4848952299 -200.069594307 c 0
 -10.150637394 -208.707833234 -45.0879862234 -215.374716168 -80.4690614934 -220.42949264 c 0
 -189.348325711 -235.984710759 -304.789653813 -237 -445 -237 c 0
 -525.748465657 -237 -573.580282394 -183.746465303 -573.679841585 -124.764730032 c 0
 -573.787183862 -61.1720691302 -519.50636287 -1 -427 -1 c 0
 -270.945147183 -1 -226.609550115 -159 -79 -159 c 0
 -47.3296246242 -159 -16.0772550739 -156.200289012 14.1662094029 -151.108666336 c 0
 103.945620779 -128.446143655 192.330052609 -91.5858926254 292.680195987 -30.6857892935 c 0
 305.067534641 -23.1682095607 317.638055483 -15.2833200463 330.415553832 -7.01279384204 c 0
 388.580660239 30.6358041027 432.301003617 84.9658939608 457.610914071 153.149030659 c 1
 428.402675289 110.832550964 379.207868104 87.776649032 313.849737974 101.536255375 c 0
 171.459744849 131.512608981 263.481894426 440.015139617 192.36480352 453.433458656 c 0
 100.081942103 470.845319301 217.093776902 393.193527092 15.5898070679 232.456256357 c 0
 4.94462011878 223.964719947 -11.0522072328 225.765005983 -19.5437436431 236.410192932 c 0
-195.741628912 -181.748769545 m 1
 -297.20688811 -131.686175397 -342.007702944 -51 -427 -51 c 0
 -496.896622204 -51 -523.735719346 -91.6189338772 -523.679912815 -124.68033183 c 0
 -523.629187978 -154.731188406 -502.341086581 -187 -445 -187 c 0
 -352.055549395 -187 -270.446791355 -186.474259213 -195.741628912 -181.748769545 c 1
EndSplineSet
Validated: 33
EndChar
StartChar: z
Encoding: 122 122 57
Width: 661
VWidth: 0
Flags: W
HStem: 570.948 50<259.389 419.586>
VStem: 446 50<440.786 545.734>
LayerCount: 2
Back
SplineSet
581 186 m 29
 721 310 l 1053
-76 186 m 29
 64 310 l 1053
EndSplineSet
Fore
SplineSet
112.59638752 206.988823432 m 2
 111.732749853 206.484710369 112.460554539 206.909398503 111.596775638 206.405527478 c 0
 112.460554539 206.909398503 85.539445461 249.090601497 86.4032243619 249.594472522 c 0
 86.8994862473 249.883958622 87.3973777361 250.172998114 87.8968826441 250.461606658 c 0
 88.7627434311 250.961891674 112.59638752 206.988823432 112.59638752 206.988823432 c 2
379.828824813 336.956949483 m 1
 393.637566647 332.933280227 407.938889818 327.354964584 421.951263596 320.473888175 c 1
 474.952730232 294.846805406 506.954494747 246.657637321 518.243295337 194.097993059 c 1
 567.074055975 217.008252546 611.397001676 242.262465558 644.809975391 270.964047517 c 0
 655.139410468 279.836982024 671.19111301 278.619459687 680.064047517 268.290024609 c 0
 688.936982024 257.960589532 687.719459687 241.90888699 677.390024609 233.035952483 c 0
 634.467133851 196.165398023 580.019034893 167.019273554 522.922542091 141.216479617 c 1
 521.743293471 104.315327968 511.69785287 67.0218973357 492.71591851 33.6136928627 c 1
 450.015439369 -40.9617918355 376.084181844 -136.422683985 300.890174394 -182.852228555 c 0
 246.404585446 -216.495083434 178.54039733 -225.316275532 137.720728257 -159.122217575 c 0
 131.783984917 -149.495066212 126.813677041 -140.022888705 122.807134818 -130.648790478 c 0
 50.3634361287 38.8475756504 301.736928125 101.094904712 471.236853507 173.17337832 c 1
 464.599005088 217.793232462 440.856690781 255.794793225 400.048736404 275.526111825 c 1
 373.731934106 288.449541525 350.749130389 294.199650772 328.612110805 295.248070603 c 0
 319.084096168 295.699321932 309.289228599 295.204948179 299.621939844 293.924725728 c 0
 266.807482634 278.343235263 233.199140061 263.98685474 202.136487774 250.323562442 c 0
 167.711541476 235.181323484 136.033008172 220.659996456 111.596775638 206.405527478 c 0
 110.732996737 205.901656452 87.2670032628 250.098343548 86.4032243619 249.594472522 c 0
 124.288605462 271.694278164 158.676246549 292.647747253 192.389895984 309.490085822 c 0
 222.846992119 324.705547023 253.024262587 336.676448728 284.649228925 342.191365238 c 0
 295.956631086 347.654173078 307.22654103 353.318131647 317.78985962 358.946303851 c 0
 395.667362825 400.439703412 446 445.894628042 446 501 c 0
 446 541.53263302 407.357105776 570.94818986 343.99999755 570.94818986 c 0
 169.417618642 570.94818986 206.510494415 391.18015294 15.9826126469 232.776158215 c 0
 5.51167148949 224.070666439 -10.5183500089 225.546446196 -19.2238417851 236.017387353 c 0
 -27.9293335613 246.488328511 -26.4535538043 262.518350009 -15.9826126469 271.223841785 c 0
 137.489505585 398.81984706 130.582381358 620.94818986 343.99999755 620.94818986 c 0
 418.872496232 620.94818986 496 582.01086316 496 501 c 0
 496 427.517301525 441.752549667 375.759147931 379.828824813 336.956949483 c 1
470.574619674 118.678757941 m 1
 276.132478561 38.2805229521 126.394060984 -9.06240839521 168.278560494 -109.799814934 c 0
 171.255324894 -116.959301834 175.20961384 -124.656715555 180.279271743 -132.877782425 c 0
 201.745316955 -167.687585472 229.110090841 -168.410269796 274.621187627 -140.308835011 c 0
 337.05331434 -101.759284214 409.721837546 -10.708316088 449.304696525 58.4223108608 c 0
 459.812284363 76.9156654553 467.045817425 97.8455960826 470.574619674 118.678757941 c 1
EndSplineSet
Validated: 37
EndChar
